<svg id="visual" viewBox="0 0 900 600" width="900" height="600" xmlns="http://www.w3.org/2000/svg" xmlns:xlink="http://www.w3.org/1999/xlink" version="1.1"><rect x="0" y="0" width="900" height="600" fill="#002233"></rect><path d="M0 515L21.5 515.5C43 516 86 517 128.8 499.2C171.7 481.3 214.3 444.7 257.2 432.8C300 421 343 434 385.8 436.3C428.7 438.7 471.3 430.3 514.2 436.8C557 443.3 600 464.7 642.8 479.7C685.7 494.7 728.3 503.3 771.2 486.5C814 469.7 857 427.3 878.5 406.2L900 385L900 601L878.5 601C857 601 814 601 771.2 601C728.3 601 685.7 601 642.8 601C600 601 557 601 514.2 601C471.3 601 428.7 601 385.8 601C343 601 300 601 257.2 601C214.3 601 171.7 601 128.8 601C86 601 43 601 21.5 601L0 601Z" fill="#2D98CE" stroke-linecap="round" stroke-linejoin="miter"></path></svg>