<svg id="visual" viewBox="0 0 900 600" width="900" height="600" xmlns="http://www.w3.org/2000/svg" xmlns:xlink="http://www.w3.org/1999/xlink" version="1.1"><path d="M0 67L13.7 67C27.3 67 54.7 67 82 63C109.3 59 136.7 51 163.8 51C191 51 218 59 245.2 62C272.3 65 299.7 63 327 63C354.3 63 381.7 65 409 67C436.3 69 463.7 71 491 78C518.3 85 545.7 97 573 97C600.3 97 627.7 85 654.8 77C682 69 709 65 736.2 68C763.3 71 790.7 81 818 82C845.3 83 872.7 75 886.3 71L900 67L900 0L886.3 0C872.7 0 845.3 0 818 0C790.7 0 763.3 0 736.2 0C709 0 682 0 654.8 0C627.7 0 600.3 0 573 0C545.7 0 518.3 0 491 0C463.7 0 436.3 0 409 0C381.7 0 354.3 0 327 0C299.7 0 272.3 0 245.2 0C218 0 191 0 163.8 0C136.7 0 109.3 0 82 0C54.7 0 27.3 0 13.7 0L0 0Z" fill="#004e70"></path><path d="M0 217L13.7 215C27.3 213 54.7 209 82 207C109.3 205 136.7 205 163.8 193C191 181 218 157 245.2 147C272.3 137 299.7 141 327 155C354.3 169 381.7 193 409 191C436.3 189 463.7 161 491 165C518.3 169 545.7 205 573 216C600.3 227 627.7 213 654.8 204C682 195 709 191 736.2 195C763.3 199 790.7 211 818 213C845.3 215 872.7 207 886.3 203L900 199L900 65L886.3 69C872.7 73 845.3 81 818 80C790.7 79 763.3 69 736.2 66C709 63 682 67 654.8 75C627.7 83 600.3 95 573 95C545.7 95 518.3 83 491 76C463.7 69 436.3 67 409 65C381.7 63 354.3 61 327 61C299.7 61 272.3 63 245.2 60C218 57 191 49 163.8 49C136.7 49 109.3 57 82 61C54.7 65 27.3 65 13.7 65L0 65Z" fill="#003750"></path><path d="M0 253L13.7 261C27.3 269 54.7 285 82 287C109.3 289 136.7 277 163.8 255C191 233 218 201 245.2 189C272.3 177 299.7 185 327 207C354.3 229 381.7 265 409 266C436.3 267 463.7 233 491 230C518.3 227 545.7 255 573 271C600.3 287 627.7 291 654.8 285C682 279 709 263 736.2 259C763.3 255 790.7 263 818 267C845.3 271 872.7 271 886.3 271L900 271L900 197L886.3 201C872.7 205 845.3 213 818 211C790.7 209 763.3 197 736.2 193C709 189 682 193 654.8 202C627.7 211 600.3 225 573 214C545.7 203 518.3 167 491 163C463.7 159 436.3 187 409 189C381.7 191 354.3 167 327 153C299.7 139 272.3 135 245.2 145C218 155 191 179 163.8 191C136.7 203 109.3 203 82 205C54.7 207 27.3 211 13.7 213L0 215Z" fill="#002233"></path><path d="M0 463L13.7 455C27.3 447 54.7 431 82 414C109.3 397 136.7 379 163.8 367C191 355 218 349 245.2 344C272.3 339 299.7 335 327 346C354.3 357 381.7 383 409 406C436.3 429 463.7 449 491 447C518.3 445 545.7 421 573 423C600.3 425 627.7 453 654.8 469C682 485 709 489 736.2 481C763.3 473 790.7 453 818 434C845.3 415 872.7 397 886.3 388L900 379L900 269L886.3 269C872.7 269 845.3 269 818 265C790.7 261 763.3 253 736.2 257C709 261 682 277 654.8 283C627.7 289 600.3 285 573 269C545.7 253 518.3 225 491 228C463.7 231 436.3 265 409 264C381.7 263 354.3 227 327 205C299.7 183 272.3 175 245.2 187C218 199 191 231 163.8 253C136.7 275 109.3 287 82 285C54.7 283 27.3 267 13.7 259L0 251Z" fill="#031e2c"></path><path d="M0 601L13.7 601C27.3 601 54.7 601 82 601C109.3 601 136.7 601 163.8 601C191 601 218 601 245.2 601C272.3 601 299.7 601 327 601C354.3 601 381.7 601 409 601C436.3 601 463.7 601 491 601C518.3 601 545.7 601 573 601C600.3 601 627.7 601 654.8 601C682 601 709 601 736.2 601C763.3 601 790.7 601 818 601C845.3 601 872.7 601 886.3 601L900 601L900 377L886.3 386C872.7 395 845.3 413 818 432C790.7 451 763.3 471 736.2 479C709 487 682 483 654.8 467C627.7 451 600.3 423 573 421C545.7 419 518.3 443 491 445C463.7 447 436.3 427 409 404C381.7 381 354.3 355 327 344C299.7 333 272.3 337 245.2 342C218 347 191 353 163.8 365C136.7 377 109.3 395 82 412C54.7 429 27.3 445 13.7 453L0 461Z" fill="#051b26"></path></svg>