<svg id="visual" viewBox="0 0 900 600" width="900" height="600" xmlns="http://www.w3.org/2000/svg" xmlns:xlink="http://www.w3.org/1999/xlink" version="1.1"><rect x="0" y="0" width="900" height="600" fill="#000223"></rect><path d="M0 373L21.5 384.8C43 396.7 86 420.3 128.8 425C171.7 429.7 214.3 415.3 257.2 408.8C300 402.3 343 403.7 385.8 396.5C428.7 389.3 471.3 373.7 514.2 380.2C557 386.7 600 415.3 642.8 416.3C685.7 417.3 728.3 390.7 771.2 383C814 375.3 857 386.7 878.5 392.3L900 398L900 601L878.5 601C857 601 814 601 771.2 601C728.3 601 685.7 601 642.8 601C600 601 557 601 514.2 601C471.3 601 428.7 601 385.8 601C343 601 300 601 257.2 601C214.3 601 171.7 601 128.8 601C86 601 43 601 21.5 601L0 601Z" fill="#2d98ce"></path><path d="M0 477L21.5 472.5C43 468 86 459 128.8 450.3C171.7 441.7 214.3 433.3 257.2 434.3C300 435.3 343 445.7 385.8 448.2C428.7 450.7 471.3 445.3 514.2 436.2C557 427 600 414 642.8 414C685.7 414 728.3 427 771.2 438.5C814 450 857 460 878.5 465L900 470L900 601L878.5 601C857 601 814 601 771.2 601C728.3 601 685.7 601 642.8 601C600 601 557 601 514.2 601C471.3 601 428.7 601 385.8 601C343 601 300 601 257.2 601C214.3 601 171.7 601 128.8 601C86 601 43 601 21.5 601L0 601Z" fill="#8b8ce0"></path><path d="M0 486L21.5 483.2C43 480.3 86 474.7 128.8 469.5C171.7 464.3 214.3 459.7 257.2 466.2C300 472.7 343 490.3 385.8 497.3C428.7 504.3 471.3 500.7 514.2 496.2C557 491.7 600 486.3 642.8 480.3C685.7 474.3 728.3 467.7 771.2 461.7C814 455.7 857 450.3 878.5 447.7L900 445L900 601L878.5 601C857 601 814 601 771.2 601C728.3 601 685.7 601 642.8 601C600 601 557 601 514.2 601C471.3 601 428.7 601 385.8 601C343 601 300 601 257.2 601C214.3 601 171.7 601 128.8 601C86 601 43 601 21.5 601L0 601Z" fill="#e072c1"></path><path d="M0 538L21.5 530.2C43 522.3 86 506.7 128.8 501.5C171.7 496.3 214.3 501.7 257.2 504.2C300 506.7 343 506.3 385.8 506.2C428.7 506 471.3 506 514.2 502.3C557 498.7 600 491.3 642.8 489.7C685.7 488 728.3 492 771.2 497.8C814 503.7 857 511.3 878.5 515.2L900 519L900 601L878.5 601C857 601 814 601 771.2 601C728.3 601 685.7 601 642.8 601C600 601 557 601 514.2 601C471.3 601 428.7 601 385.8 601C343 601 300 601 257.2 601C214.3 601 171.7 601 128.8 601C86 601 43 601 21.5 601L0 601Z" fill="#ff6779"></path><path d="M0 561L21.5 562.3C43 563.7 86 566.3 128.8 563.2C171.7 560 214.3 551 257.2 551.2C300 551.3 343 560.7 385.8 562.7C428.7 564.7 471.3 559.3 514.2 554.2C557 549 600 544 642.8 542.3C685.7 540.7 728.3 542.3 771.2 540.8C814 539.3 857 534.7 878.5 532.3L900 530L900 601L878.5 601C857 601 814 601 771.2 601C728.3 601 685.7 601 642.8 601C600 601 557 601 514.2 601C471.3 601 428.7 601 385.8 601C343 601 300 601 257.2 601C214.3 601 171.7 601 128.8 601C86 601 43 601 21.5 601L0 601Z" fill="#f38720"></path></svg>